HIERARCHY
ROOT joint_Root
{
	OFFSET 0.0 0.0 0.0
	CHANNELS 6 Xposition Yposition Zposition Zrotation Xrotation Yrotation 
	JOINT Hips
	{
		OFFSET 4.5925 91.4895 -427.239
		CHANNELS 6 Xposition Yposition Zposition Zrotation Xrotation Yrotation 
		JOINT Spine
		{
			OFFSET 15.7357 0.0 0.0
			CHANNELS 6 Xposition Yposition Zposition Zrotation Xrotation Yrotation 
			JOINT Chest
			{
				OFFSET 8.98455 -0.406207 0.0
				CHANNELS 6 Xposition Yposition Zposition Zrotation Xrotation Yrotation 
				JOINT Neck
				{
					OFFSET 16.3773 0.0 0.0
					CHANNELS 6 Xposition Yposition Zposition Zrotation Xrotation Yrotation 
					JOINT Head
					{
						OFFSET 6.45672 0.0 0.0
						CHANNELS 6 Xposition Yposition Zposition Zrotation Xrotation Yrotation 
						End Site
						{
							OFFSET 0.0 0.0 0.0
						}
					}
				}
				JOINT Shoulder_L
				{
					OFFSET 12.9942 -0.242716 4.98039
					CHANNELS 6 Xposition Yposition Zposition Zrotation Xrotation Yrotation 
					JOINT UpperArm_L
					{
						OFFSET 5.34809 0.0 0.0
						CHANNELS 6 Xposition Yposition Zposition Zrotation Xrotation Yrotation 
						JOINT LowerArm_L
						{
							OFFSET 24.3286 1.87007e-05 0.0
							CHANNELS 6 Xposition Yposition Zposition Zrotation Xrotation Yrotation 
							JOINT Hand_L
							{
								OFFSET 22.2916 0.0 0.0
								CHANNELS 6 Xposition Yposition Zposition Zrotation Xrotation Yrotation 
								End Site
								{
									OFFSET 0.0 0.0 0.0
								}
							}
						}
					}
				}
				JOINT Shoulder_R
				{
					OFFSET 12.9945 -0.242716 -4.98039
					CHANNELS 6 Xposition Yposition Zposition Zrotation Xrotation Yrotation 
					JOINT UpperArm_R
					{
						OFFSET -5.34813 0.0 0.0
						CHANNELS 6 Xposition Yposition Zposition Zrotation Xrotation Yrotation 
						JOINT LowerArm_R
						{
							OFFSET -24.3289 0.000322201 0.0
							CHANNELS 6 Xposition Yposition Zposition Zrotation Xrotation Yrotation 
							JOINT Hand_R
							{
								OFFSET -22.2915 -0.000108084 0.0
								CHANNELS 6 Xposition Yposition Zposition Zrotation Xrotation Yrotation 
								End Site
								{
									OFFSET 0.0 0.0 0.0
								}
							}
						}
					}
				}
			}
		}
		JOINT UpperLeg_L
		{
			OFFSET -2.19248 -6.46944 0.0
			CHANNELS 6 Xposition Yposition Zposition Zrotation Xrotation Yrotation 
			JOINT LowerLeg_L
			{
				OFFSET 39.0811 0.0 -1.23785e-05
				CHANNELS 6 Xposition Yposition Zposition Zrotation Xrotation Yrotation 
				JOINT Foot_L
				{
					OFFSET 40.9854 0.0 -1.26872e-05
					CHANNELS 6 Xposition Yposition Zposition Zrotation Xrotation Yrotation 
					JOINT Toes_L
					{
						OFFSET 11.7543 0.0 0.0
						CHANNELS 6 Xposition Yposition Zposition Zrotation Xrotation Yrotation 
						End Site
						{
							OFFSET 0.0 0.0 0.0
						}
					}
				}
			}
		}
		JOINT UpperLeg_R
		{
			OFFSET -2.19251 6.46944 0.0
			CHANNELS 6 Xposition Yposition Zposition Zrotation Xrotation Yrotation 
			JOINT LowerLeg_R
			{
				OFFSET -39.0811 -0.00228153 -0.0401928
				CHANNELS 6 Xposition Yposition Zposition Zrotation Xrotation Yrotation 
				JOINT Foot_R
				{
					OFFSET -40.9854 0.0 0.0
					CHANNELS 6 Xposition Yposition Zposition Zrotation Xrotation Yrotation 
					JOINT Toes_R
					{
						OFFSET -11.7543 0.0 0.0
						CHANNELS 6 Xposition Yposition Zposition Zrotation Xrotation Yrotation 
						End Site
						{
							OFFSET 0.0 0.0 0.0
						}
					}
				}
			}
		}
	}
}
MOTION
Frames:	6
Frame Time:	0.0333333
0.000000 0.000000 0.000000 0.000000 0.000000 -0.000000 -1.181440 80.899300 -4.014230 88.916600 -3.004240 7.792460 15.735700 0.000005 -0.000001 87.189900 82.212300 -87.296200 8.984550 -0.406207 -0.000000 7.790540 -0.760490 -0.160653 16.377300 -0.000001 -0.000001 -4.144010 -0.540148 0.564714 6.456720 -0.000001 -0.000000 -7.997740 0.173800 3.145290 12.994200 -0.242716 4.980390 -90.370600 1.267360 -73.696200 5.348090 -0.000007 -0.000001 -69.319400 -1.089610 -11.111700 24.328600 0.000019 0.000005 4.192500 14.450200 -16.377700 22.291600 -0.000001 0.000005 14.672300 5.321010 -0.498020 12.994500 -0.242716 -4.980390 88.931000 5.872890 -79.663700 -5.348130 -0.000001 -0.000004 -64.556400 8.604370 -13.211000 -24.328900 0.000322 -0.000009 -2.681680 -17.563200 -8.807270 -22.291500 -0.000108 -0.000004 14.446000 5.481030 -5.743280 -2.192480 -6.469440 -0.000000 -174.143000 -13.066000 -22.858900 39.081100 -0.000007 -0.000012 -0.458046 0.200271 66.384700 40.985400 -0.000006 -0.000013 2.344750 6.320530 -85.540300 11.754300 -0.000000 0.000003 -0.000385 -0.003200 -16.695700 -2.192510 6.469440 -0.000001 178.628000 13.547100 157.396000 -39.081100 -0.002282 -0.040193 0.085231 -0.036362 66.105300 -40.985400 0.000008 0.000006 8.649960 5.006400 -86.578500 -11.754300 -0.000006 -0.000006 -0.395251 -0.482063 -16.266200
0.000000 0.000000 0.000000 0.000000 0.000000 -0.000000 -1.369690 82.728600 -2.860810 88.961500 -2.616360 8.083930 15.735700 0.000005 -0.000001 85.854900 83.075600 -86.022800 8.984550 -0.406207 -0.000000 6.045720 -0.995799 -0.282856 16.377300 -0.000001 -0.000001 -3.474910 -0.249563 0.442256 6.456720 -0.000001 -0.000000 -7.349390 0.674641 3.108880 12.994200 -0.242716 4.980390 -89.976600 -0.076356 -73.060800 5.348090 -0.000007 -0.000001 -65.439900 -15.624000 -11.438600 24.328600 0.000019 0.000005 4.137310 19.439400 -12.267800 22.291600 -0.000001 0.000005 14.083800 5.239450 1.666170 12.994500 -0.242716 -4.980390 89.086600 4.489340 -78.483800 -5.348130 -0.000001 -0.000004 -60.342400 -1.501710 -14.400700 -24.328900 0.000322 -0.000009 -0.473538 -13.484100 -2.017030 -22.291500 -0.000108 -0.000004 10.741300 5.425260 -3.794120 -2.192480 -6.469440 -0.000000 -173.980000 -12.370600 -19.059400 39.081100 -0.000007 -0.000012 -0.435643 0.239334 61.217400 40.985400 -0.000006 -0.000013 1.816780 6.329730 -83.865600 11.754300 -0.000000 0.000003 -0.000344 -0.002913 -16.685600 -2.192510 6.469440 -0.000001 178.349000 13.790500 161.243000 -39.081100 -0.002282 -0.040193 0.074447 -0.039436 61.036800 -40.985400 0.000008 0.000006 8.437650 5.249750 -84.851300 -11.754300 -0.000006 -0.000006 -0.455866 -0.558521 -16.412400
0.000000 0.000000 0.000000 0.000000 0.000000 -0.000000 -1.510420 85.797000 -1.217080 89.189200 -2.291620 9.049290 15.735700 0.000005 -0.000001 84.642700 84.082100 -84.960500 8.984550 -0.406207 -0.000000 4.015640 -1.093050 -0.596634 16.377300 -0.000001 -0.000001 -2.194350 -0.420201 0.478708 6.456720 -0.000001 -0.000000 -6.063900 0.443906 3.297610 12.994200 -0.242716 4.980390 -89.254300 -2.372920 -72.551600 5.348090 -0.000007 -0.000001 -59.780700 -31.307800 -12.876000 24.328600 0.000019 0.000005 3.495490 20.065700 -10.093500 22.291600 -0.000001 0.000005 17.559800 5.105930 4.950880 12.994500 -0.242716 -4.980390 89.487500 2.289530 -77.371700 -5.348130 -0.000001 -0.000004 -54.586400 -15.138600 -16.334800 -24.328900 0.000322 -0.000009 -0.000269 -13.107700 -0.000074 -22.291500 -0.000108 -0.000004 14.550500 5.367180 -1.926360 -2.192480 -6.469440 -0.000000 -173.954000 -11.434100 -11.933000 39.081100 -0.000007 -0.000012 -0.387136 0.308625 51.439000 40.985400 -0.000006 -0.000013 1.027090 6.195560 -80.236600 11.754300 -0.000000 0.000003 -0.000262 -0.002322 -16.664400 -2.192510 6.469440 -0.000001 177.634000 13.652700 168.266000 -39.081100 -0.002282 -0.040193 0.054238 -0.040431 51.591900 -40.985400 0.000008 0.000006 7.773520 5.795500 -81.023800 -11.754300 -0.000006 -0.000006 -0.490399 -0.602130 -16.769800
0.000000 0.000000 0.000000 0.000000 0.000000 -0.000000 -1.607030 88.867400 0.176360 89.449700 -1.696510 7.943440 15.735700 0.000005 -0.000001 81.450400 85.851800 -81.924900 8.984550 -0.406207 -0.000000 0.433498 -1.202640 -0.943916 16.377300 -0.000001 -0.000001 -0.384835 -0.754569 0.565952 6.456720 -0.000001 -0.000000 -4.252700 -0.123232 3.699890 12.994200 -0.242716 4.980390 -88.270600 -5.212410 -71.621600 5.348090 -0.000007 -0.000001 -54.344900 -43.764200 -19.278900 24.328600 0.000019 0.000005 2.473250 16.876300 -8.460210 22.291600 -0.000001 0.000005 20.678900 5.042660 6.397300 12.994500 -0.242716 -4.980390 90.108700 -0.432678 -75.957400 -5.348130 -0.000001 -0.000004 -46.906700 -26.639400 -21.217200 -24.328900 0.000322 -0.000009 -0.000678 -15.263100 -0.000085 -22.291500 -0.000108 -0.000004 16.314900 5.347290 -1.296200 -2.192480 -6.469440 -0.000000 -174.451000 -10.932300 -6.223920 39.081100 -0.000007 -0.000012 -0.277011 0.335160 39.574400 40.985400 -0.000006 -0.000013 0.362000 6.357360 -75.229000 11.754300 -0.000000 0.000003 -0.000124 -0.001237 -16.624800 -2.192510 6.469440 -0.000001 177.242000 14.487300 173.594000 -39.081100 -0.002282 -0.040193 0.035164 -0.037191 40.609800 -40.985400 0.000008 0.000006 7.140560 7.029650 -75.556400 -11.754300 -0.000006 -0.000006 -0.460281 -0.567524 -17.743300
0.000000 0.000000 0.000000 0.000000 0.000000 -0.000000 -1.627040 91.003000 0.955470 89.679300 -1.049860 5.469730 15.735700 0.000005 -0.000001 73.618800 87.871600 -74.210300 8.984550 -0.406207 -0.000000 -3.688060 -1.140720 -1.220190 16.377300 -0.000001 -0.000001 1.563760 -1.244370 0.643183 6.456720 -0.000001 -0.000000 -2.634870 -0.965336 4.020330 12.994200 -0.242716 4.980390 -87.225500 -7.870600 -70.512300 5.348090 -0.000007 -0.000001 -50.872300 -51.529500 -32.082300 24.328600 0.000019 0.000005 1.634410 11.648300 -8.047210 22.291600 -0.000001 0.000005 20.744900 5.081610 5.520420 12.994500 -0.242716 -4.980390 90.945500 -3.520250 -74.957200 -5.348130 -0.000001 -0.000004 -38.777400 -37.250000 -28.474800 -24.328900 0.000322 -0.000009 -0.002449 -18.034300 -0.000100 -22.291500 -0.000108 -0.000004 14.855600 5.355740 -1.554200 -2.192480 -6.469440 -0.000000 -175.216000 -11.343100 -3.029110 39.081100 -0.000007 -0.000012 -0.118250 0.212879 29.051400 40.985400 -0.000006 -0.000013 0.958805 6.941820 -70.554700 11.754300 -0.000000 0.000003 -0.547689 -0.689811 -16.154400 -2.192510 6.469440 -0.000001 177.045000 17.112400 175.898000 -39.081100 -0.002282 -0.040193 0.021999 -0.030108 31.845500 -40.985400 0.000008 0.000006 6.880480 9.555130 -70.165300 -11.754300 -0.000006 -0.000006 -0.764239 -0.921628 -18.887900
0.000000 0.000000 0.000000 0.000000 0.000000 -0.000000 -1.656760 92.106100 1.447530 89.639800 -0.642212 3.777250 15.735700 0.000005 -0.000001 47.650500 89.230100 -48.223700 8.984550 -0.406207 -0.000000 -6.633200 -0.963385 -1.204030 16.377300 -0.000001 -0.000001 3.452970 -1.270370 0.609445 6.456720 -0.000001 -0.000000 -2.079730 -1.605650 4.163890 12.994200 -0.242716 4.980390 -86.131400 -10.883700 -70.295300 5.348090 -0.000007 -0.000001 -42.780200 -54.297000 -41.224200 24.328600 0.000019 0.000005 0.833523 4.099810 -11.609500 22.291600 -0.000001 0.000005 16.643800 5.206350 2.516960 12.994500 -0.242716 -4.980390 92.027700 -7.710240 -75.212400 -5.348130 -0.000001 -0.000004 -30.040100 -45.529800 -34.118200 -24.328900 0.000322 -0.000009 -0.826167 -24.701000 -1.951920 -22.291500 -0.000108 -0.000004 14.565300 5.404430 -3.069670 -2.192480 -6.469440 -0.000000 -175.539000 -12.379900 -1.324980 39.081100 -0.000007 -0.000012 0.001763 -0.004209 22.732200 40.985400 -0.000006 -0.000013 2.820680 7.940760 -67.641700 11.754300 -0.000000 0.000003 -0.704371 -0.874256 -16.166100 -2.192510 6.469440 -0.000001 176.832000 20.460900 177.332000 -39.081100 -0.002282 -0.040193 0.016428 -0.026389 26.433800 -40.985400 0.000008 0.000006 6.816660 13.049800 -67.304500 -11.754300 -0.000006 -0.000006 -0.062605 -0.122431 -18.925300
